<svg width="23" height="8" viewBox="0 0 23 8" fill="none" xmlns="http://www.w3.org/2000/svg">
<path d="M9.375 7.5C9.02083 7.5 8.72396 7.38021 8.48438 7.14062C8.24479 6.90104 8.125 6.60417 8.125 6.25V5H10V5.625H12.5V4.375H9.375C9.02083 4.375 8.72396 4.25521 8.48438 4.01562C8.24479 3.77604 8.125 3.47917 8.125 3.125V1.25C8.125 0.895833 8.24479 0.598958 8.48438 0.359375C8.72396 0.119792 9.02083 0 9.375 0H13.125C13.4792 0 13.776 0.119792 14.0156 0.359375C14.2552 0.598958 14.375 0.895833 14.375 1.25V2.5H12.5V1.875H10V3.125H13.125C13.4792 3.125 13.776 3.24479 14.0156 3.48438C14.2552 3.72396 14.375 4.02083 14.375 4.375V6.25C14.375 6.60417 14.2552 6.90104 14.0156 7.14062C13.776 7.38021 13.4792 7.5 13.125 7.5H9.375V7.5M17.5 7.5C17.1458 7.5 16.849 7.38021 16.6094 7.14062C16.3698 6.90104 16.25 6.60417 16.25 6.25V5H18.125V5.625H20.625V4.375H17.5C17.1458 4.375 16.849 4.25521 16.6094 4.01562C16.3698 3.77604 16.25 3.47917 16.25 3.125V1.25C16.25 0.895833 16.3698 0.598958 16.6094 0.359375C16.849 0.119792 17.1458 0 17.5 0H21.25C21.6042 0 21.901 0.119792 22.1406 0.359375C22.3802 0.598958 22.5 0.895833 22.5 1.25V2.5H20.625V1.875H18.125V3.125H21.25C21.6042 3.125 21.901 3.24479 22.1406 3.48438C22.3802 3.72396 22.5 4.02083 22.5 4.375V6.25C22.5 6.60417 22.3802 6.90104 22.1406 7.14062C21.901 7.38021 21.6042 7.5 21.25 7.5H17.5V7.5M1.25 7.5C0.895833 7.5 0.598958 7.38021 0.359375 7.14062C0.119792 6.90104 0 6.60417 0 6.25V1.25C0 0.895833 0.119792 0.598958 0.359375 0.359375C0.598958 0.119792 0.895833 0 1.25 0H5C5.35417 0 5.65104 0.119792 5.89062 0.359375C6.13021 0.598958 6.25 0.895833 6.25 1.25V2.5H4.375V1.875H1.875V5.625H4.375V5H6.25V6.25C6.25 6.60417 6.13021 6.90104 5.89062 7.14062C5.65104 7.38021 5.35417 7.5 5 7.5H1.25V7.5" fill="#C0C1FF"/>
</svg>
