<svg width="30" height="8" viewBox="0 0 30 8" fill="none" xmlns="http://www.w3.org/2000/svg">
<path d="M0 7.5V0H1.875V2.5H4.375V0H6.25V7.5H4.375V4.375H1.875V7.5H0ZM9.6875 7.5V1.875H7.5V0H13.75V1.875H11.5625V7.5H9.6875ZM15 7.5V1.25C15 0.895833 15.1198 0.598958 15.3594 0.359375C15.599 0.119792 15.8958 0 16.25 0H21.875C22.2292 0 22.526 0.119792 22.7656 0.359375C23.0052 0.598958 23.125 0.895833 23.125 1.25V7.5H21.25V1.875H20V6.25H18.125V1.875H16.875V7.5H15ZM25 7.5V0H26.875V5.625H30V7.5H25Z" fill="#C0C1FF"/>
</svg>
