<svg width="14" height="8" viewBox="0 0 14 8" fill="none" xmlns="http://www.w3.org/2000/svg">
<path d="M1.875 7.5C1.35417 7.5 0.911458 7.31771 0.546875 6.95312C0.182292 6.58854 0 6.14583 0 5.625V4.375H1.875V5.625H3.75V0H5.625V5.625C5.625 6.14583 5.44271 6.58854 5.07812 6.95312C4.71354 7.31771 4.27083 7.5 3.75 7.5H1.875V7.5M8.75 7.5C8.39583 7.5 8.09896 7.38021 7.85938 7.14062C7.61979 6.90104 7.5 6.60417 7.5 6.25V5H9.375V5.625H11.875V4.375H8.75C8.39583 4.375 8.09896 4.25521 7.85938 4.01562C7.61979 3.77604 7.5 3.47917 7.5 3.125V1.25C7.5 0.895833 7.61979 0.598958 7.85938 0.359375C8.09896 0.119792 8.39583 0 8.75 0H12.5C12.8542 0 13.151 0.119792 13.3906 0.359375C13.6302 0.598958 13.75 0.895833 13.75 1.25V2.5H11.875V1.875H9.375V3.125H12.5C12.8542 3.125 13.151 3.24479 13.3906 3.48438C13.6302 3.72396 13.75 4.02083 13.75 4.375V6.25C13.75 6.60417 13.6302 6.90104 13.3906 7.14062C13.151 7.38021 12.8542 7.5 12.5 7.5H8.75V7.5" fill="#C0C1FF"/>
</svg>
